<svg width="460" height="460" xmlns="http://www.w3.org/2000/svg" xml:space="preserve" version="1.0">
  <path id="svg_1" fill="#4B90CD" d="m160.29,449.33499l-39.52,-67.9l-78.54,-16.17l8.83,-76.77l-49.93,-58.5l49.93,-57.98l-8.83,-76.75l78.54,-16.21l39.52,-68.39l69.71,32.39l69.71,-32.39l40.05,68.41l78.01,16.19l-8.83,76.77l49.93,57.96l-49.93,58.5l8.83,76.77l-78.01,16.17l-40.05,67.9l-69.71,-32.39l-69.71,32.39zm47.34,-149.87l118.08,-117.51l-23.4,-21.42l-94.68,94.01l-49.4,-51.69l-23.94,23.48c0.01,0 73.34,73.13 73.34,73.13z" class="st0"/>
</svg>